<svg id="wave" viewBox="0 0 310 530" xmlns="http://www.w3.org/2000/svg">
  <path  class="Line_1" d="M10 125H0V360H10V125Z"/>
  <path  class="Line_2" d="M30 80H20V390H30V80Z"/>
  <path  class="Line_3" d="M50 120H40V335H50V120Z"/>
  <path  class="Line_4" d="M70 180H60V420H70V180Z"/>
  <path  class="Line_5" d="M90 270H80V470H90V270Z"/>
  <path  class="Line_6" d="M110 120H100V350H110V120Z"/>
  <path  class="Line_7" d="M130 10H120V310H130V10Z"/>
  <path  class="Line_8" d="M150 60H140V350H150V60Z"/>
  <path  class="Line_9" d="M170 185H160V365H170V185Z"/>
  <path  class="Line_10" d="M190 110H180V410H190V110Z"/>
  <path  class="Line_11" d="M210 150H200V430H210V150Z"/>
  <path  class="Line_12" d="M230 190H220V450H230V190Z"/>
  <path  class="Line_13" d="M250 170H240V370H250V170Z"/>
  <path  class="Line_14" d="M270 50H260V340H270V50Z"/>
  <path  class="Line_15" d="M290 180H280V390H290V180Z"/>
  <path  class="Line_16" d="M310 110H300V410H310V110Z"/>
  <path  class="Line_17" d="M30 410H20V420H30V410Z"/>
  <path  class="Line_18" d="M50 360H40V370H50V360Z"/>
  <path  class="Line_19" d="M110 400H100V420H110V400Z"/>
  <path  class="Line_20" d="M70 480H60V500H70V480Z"/>
  <path  class="Line_21" d="M90 500H80V510H90V500Z"/>
  <path  class="Line_22" d="M130 370H120V380H130V370Z"/>
  <path  class="Line_23" d="M150 395H140V415H150V395Z"/>
  <path  class="Line_24" d="M150 435H140V445H150V435Z"/>
  <path  class="Line_25" d="M190 520H180V530H190V520Z"/>
  <path  class="Line_26" d="M110 450H100V460H110V450Z"/>
  <path  class="Line_27" d="M210 480H200V490H210V480Z"/>
  <path  class="Line_28" d="M250 400H240V420H250V400Z"/>
  <path  class="Line_29" d="M270 360H260V370H270V360Z"/>
  <path  class="Line_30" d="M290 410H280V420H290V410Z"/>
  <path  class="Line_31" d="M290 140H280V160H290V140Z"/>
  <path  class="Line_32" d="M310 30H300V40H310V30Z"/>
  <path  class="Line_33" d="M250 145H240V155H250V145Z"/>
  <path  class="Line_34" d="M230 60H220V70H230V60Z"/>
  <path  class="Line_35" d="M210 100H200V110H210V100Z"/>
  <path  class="Line_36" d="M150 20H140V30H150V20Z"/>
  <path  class="Line_37" d="M170 110H160V120H170V110Z"/>
  <path  class="Line_38" d="M90 180H80V190H90V180Z"/>
  <path  class="Line_39" d="M70 110H60V130H70V110Z"/>
  <path  class="Line_40" d="M50 70H40V80H50V70Z"/>
  <path  class="Line_41" d="M30 38.29H20V50H30V38.29Z"/>
  <path  class="Line_42" d="M110 80H100V90H110V80Z"/>
  <path  class="Line_43" d="M190 50H180V70H190V50Z"/>
  <path  class="Line_44" d="M170 150H160V170H170V150Z"/>
  <path  class="Line_45" d="M90 230H80V250H90V230Z"/>
  <path  class="Line_46" d="M230 120H220V150H230V120Z"/>
  <path  class="Line_47" d="M270 0H260V10H270V0Z"/>
  <path  class="Line_48" d="M250 460H240V470H250V460Z"/>
  <path  class="Line_49" d="M210 450H200V470H210V450Z"/>
  <path  class="Line_50" d="M10 460H0V470H10V460Z"/>
  <path  class="Line_51" d="M10 380H0V400H10V380Z"/>
</svg>
