<svg width="54" height="60" viewBox="0 0 54 60" fill="none" xmlns="http://www.w3.org/2000/svg">
<path d="M48.1448 58.2841C47.5834 57.8069 47.3026 57.0711 47.3227 56.1166H49.0672C49.0672 56.5143 49.1875 56.8325 49.4282 57.0314C49.6688 57.2501 50.0297 57.3495 50.4709 57.3495C50.8318 57.3495 51.1326 57.2899 51.3531 57.1706C51.5737 57.0512 51.674 56.8723 51.674 56.6138C51.674 56.4149 51.5737 56.2558 51.3531 56.1763C51.1326 56.0769 50.912 56.0172 50.7115 55.9774C50.4909 55.9377 50.3706 55.9178 50.3104 55.9178C49.769 55.8184 49.2878 55.6792 48.8867 55.54C48.4857 55.3809 48.1649 55.1621 47.8841 54.844C47.6235 54.5258 47.4831 54.1281 47.4831 53.6111C47.4831 53.1139 47.6235 52.6765 47.8841 52.3185C48.1448 51.9606 48.5058 51.7021 48.967 51.5231C49.4081 51.3441 49.9094 51.2646 50.4508 51.2646C51.0925 51.2646 51.6539 51.3839 52.1352 51.6225C52.6164 51.8612 52.9774 52.2191 53.238 52.7162C53.3784 52.9549 53.4586 53.1736 53.4787 53.3923C53.4987 53.6111 53.5188 53.8099 53.5188 54.0287H51.7742C51.7742 53.6508 51.674 53.3724 51.4735 53.1935C51.2729 53.0145 50.9521 52.9151 50.511 52.9151C50.1701 52.9151 49.8893 52.9747 49.7089 53.094C49.5084 53.2134 49.4282 53.3724 49.4282 53.5713C49.4282 53.79 49.5485 53.969 49.8091 54.0684C50.0698 54.1679 50.3906 54.2673 50.7716 54.3468C51.4133 54.4661 51.9146 54.5855 52.2755 54.7048C52.6365 54.8241 52.9373 55.0229 53.1979 55.3212C53.4586 55.6195 53.599 56.0371 53.599 56.574C53.599 57.0711 53.4586 57.5086 53.1779 57.8864C52.8972 58.2444 52.5162 58.5228 52.055 58.7216C51.5938 58.9205 51.0925 59.0199 50.5511 59.0199C49.5084 59 48.7063 58.7614 48.1448 58.2841Z" fill="#020000"/>
<path d="M43.4326 58.9205V53.2332H40.866V51.3044H47.062V53.2332H44.4954V58.9205H43.4326Z" fill="#020000"/>
<path d="M35.1511 58.2841C34.5897 57.8069 34.3089 57.0711 34.329 56.1166H36.0735C36.0735 56.5143 36.1938 56.8325 36.4344 57.0314C36.6751 57.2501 37.036 57.3495 37.4771 57.3495C37.8381 57.3495 38.1389 57.2899 38.3594 57.1706C38.58 57.0512 38.6803 56.8723 38.6803 56.6138C38.6803 56.4149 38.58 56.2558 38.3594 56.1763C38.1389 56.0769 37.9183 56.0172 37.7178 55.9774C37.4972 55.9377 37.3769 55.9178 37.3167 55.9178C36.7753 55.8184 36.2941 55.6792 35.893 55.54C35.492 55.3809 35.1712 55.1621 34.8904 54.844C34.6298 54.5258 34.4894 54.1281 34.4894 53.6111C34.4894 53.1139 34.6298 52.6765 34.8904 52.3185C35.1511 51.9606 35.512 51.7021 35.9732 51.5231C36.4144 51.3441 36.9157 51.2646 37.4571 51.2646C38.0988 51.2646 38.6602 51.3839 39.1415 51.6225C39.6227 51.8612 39.9836 52.2191 40.2443 52.7162C40.3847 52.9549 40.4649 53.1736 40.4849 53.3923C40.505 53.6111 40.525 53.8099 40.525 54.0287H38.7805C38.7805 53.6508 38.6803 53.3724 38.4797 53.1935C38.2792 53.0145 37.9584 52.9151 37.5172 52.9151C37.1764 52.9151 36.8956 52.9747 36.7152 53.094C36.5146 53.2134 36.4344 53.3724 36.4344 53.5713C36.4344 53.79 36.5548 53.969 36.8154 54.0684C37.0761 54.1679 37.3969 54.2673 37.7779 54.3468C38.4196 54.4661 38.9209 54.5855 39.2818 54.7048C39.6428 54.8241 39.9435 55.0229 40.2042 55.3212C40.4649 55.6195 40.6053 56.0371 40.6053 56.574C40.6053 57.0711 40.4649 57.5086 40.1842 57.8864C39.9034 58.2444 39.5224 58.5228 39.0613 58.7216C38.6001 58.9205 38.0988 59.0199 37.5574 59.0199C36.4946 59 35.7126 58.7614 35.1511 58.2841Z" fill="#020000"/>
<path d="M34.0483 58.9205H26.9699L30.5191 51.3044L34.0483 58.9205Z" fill="#020000"/>
<path d="M26.99 56.0371C26.99 56.9717 26.7293 57.6876 26.1879 58.2245C25.6465 58.7415 24.8845 59 23.9421 59C23.3807 59 22.8593 58.8807 22.378 58.6222C21.8968 58.3637 21.5158 58.0057 21.2351 57.5285C20.9544 57.0512 20.814 56.5143 20.814 55.8979V54.3468C20.814 53.7503 20.9544 53.2134 21.215 52.7361C21.4757 52.2589 21.8567 51.9009 22.3179 51.6424C22.7791 51.3839 23.3205 51.2447 23.902 51.2447C24.8645 51.2447 25.6064 51.5032 26.1478 52.0202C26.6892 52.5373 26.97 53.273 26.97 54.2076H25.0249C25.0249 53.8497 24.9247 53.5713 24.7241 53.3724C24.5437 53.1736 24.2629 53.0742 23.8819 53.0742C23.5611 53.0742 23.2804 53.1736 23.0598 53.3923C22.8392 53.5912 22.739 53.8895 22.739 54.2673V56.0172C22.739 56.395 22.8593 56.6933 23.0799 56.8922C23.3004 57.1109 23.5812 57.2103 23.9221 57.2103C24.684 57.2103 25.045 56.8325 25.045 56.057H26.99V56.0371Z" fill="#020000"/>
<path d="M13.856 58.9205V51.3044H16.7033C17.2648 51.3044 17.7861 51.4436 18.2473 51.7219C18.7286 52.0003 19.0895 52.3782 19.3703 52.8355C19.651 53.3128 19.7913 53.8099 19.7913 54.3667V55.8382C19.7913 56.395 19.651 56.912 19.3703 57.3694C19.0895 57.8467 18.7085 58.2046 18.2473 58.483C17.7661 58.7614 17.2648 58.9006 16.7033 58.9006H13.856V58.9205Z" fill="#020000"/>
<path d="M7.39921 52.7759C7.67994 52.2986 8.04087 51.9407 8.52212 51.6623C9.00337 51.3839 9.50467 51.2447 10.0661 51.2447C10.6276 51.2447 11.1489 51.3839 11.6101 51.6623C12.0914 51.9407 12.4523 52.3185 12.733 52.7759C13.0138 53.2531 13.1541 53.7503 13.1541 54.3071V55.9377C13.1541 56.4944 13.0138 56.9916 12.733 57.4688C12.4523 57.9461 12.0914 58.304 11.6101 58.5824C11.1289 58.8608 10.6276 59 10.0661 59C9.50467 59 8.98332 58.8608 8.52212 58.5824C8.04087 58.304 7.67994 57.9262 7.39921 57.4688C7.11848 56.9916 6.97812 56.4944 6.97812 55.9377V54.3071C6.97812 53.7701 7.11848 53.2531 7.39921 52.7759ZM9.24399 56.7927C9.46456 57.0313 9.72524 57.1507 10.0661 57.1507C10.407 57.1507 10.6677 57.0313 10.8883 56.7927C11.1088 56.5541 11.2091 56.2558 11.2091 55.9178V54.2872C11.2091 53.9491 11.1088 53.6508 10.8883 53.4122C10.6677 53.1736 10.407 53.0543 10.0661 53.0543C9.72524 53.0543 9.44451 53.1736 9.24399 53.4122C9.02342 53.6508 8.92316 53.9292 8.92316 54.2872V55.9178C8.92316 56.2757 9.02342 56.5541 9.24399 56.7927Z" fill="#020000"/>
<path d="M0.501282 58.9205V51.3044H3.7096C4.251 51.3044 4.7122 51.4038 5.09319 51.6026C5.53433 51.8214 5.89527 52.1594 6.15594 52.577C6.41662 52.9946 6.55698 53.452 6.55698 53.969C6.55698 54.4661 6.41662 54.9434 6.15594 55.361C5.89527 55.7786 5.53433 56.1166 5.09319 56.3354C4.7122 56.5342 4.251 56.6336 3.68955 56.6336H2.48643V58.9403H0.501282V58.9205Z" fill="#020000"/>
<path d="M47.6635 42.2764H53.2581V44.2052H49.6687V45.1597H52.6365V46.9892H49.6687V47.9636H53.2581V49.8925H47.6635V42.2764Z" fill="#020000"/>
<path d="M39.7029 49.8925V42.2764H42.5503C43.1118 42.2764 43.6331 42.4156 44.0943 42.694C44.5756 42.9724 44.9365 43.3502 45.2172 43.8075C45.498 44.2848 45.6383 44.7819 45.6383 45.3387V46.8102C45.6383 47.367 45.498 47.884 45.2172 48.3414C44.9365 48.8187 44.5555 49.1766 44.0943 49.455C43.6131 49.7334 43.1118 49.8726 42.5503 49.8726H39.7029V49.8925Z" fill="#020000"/>
<path d="M14.7984 49.8925H7.72L11.2692 42.2764L14.7984 49.8925Z" fill="#020000"/>
<path d="M16.7634 49.2363C16.202 48.759 15.9213 48.0233 15.9413 47.0688H17.6858C17.6858 47.4665 17.8061 47.7847 18.0468 47.9835C18.2874 48.2022 18.6483 48.3017 19.0895 48.3017C19.4504 48.3017 19.7512 48.242 19.9718 48.1227C20.1923 48.0034 20.2926 47.8244 20.2926 47.5659C20.2926 47.3671 20.1923 47.208 19.9718 47.1284C19.7512 47.029 19.5306 46.9693 19.3301 46.9296C19.1095 46.8898 18.9892 46.8699 18.9291 46.8699C18.3877 46.7705 17.9064 46.6313 17.5054 46.4921C17.1043 46.333 16.7835 46.1143 16.5028 45.7961C16.2421 45.4779 16.1017 45.0802 16.1017 44.5632C16.1017 44.0661 16.2421 43.6286 16.5028 43.2707C16.7634 42.9127 17.1244 42.6542 17.5856 42.4752C18.0267 42.2963 18.528 42.2167 19.0694 42.2167C19.7111 42.2167 20.2725 42.336 20.7538 42.5747C21.235 42.8133 21.596 43.1712 21.8566 43.6684C21.997 43.907 22.0772 44.1257 22.0973 44.3445C22.1173 44.5632 22.1374 44.7621 22.1374 44.9808H20.3928C20.3928 44.603 20.2926 44.3246 20.0921 44.1456C19.8916 43.9666 19.5707 43.8672 19.1296 43.8672C18.7887 43.8672 18.508 43.9269 18.3275 44.0462C18.127 44.1655 18.0468 44.3246 18.0468 44.5234C18.0468 44.7422 18.1671 44.9211 18.4278 45.0206C18.6884 45.12 19.0093 45.2194 19.3903 45.299C20.0319 45.4183 20.5332 45.5376 20.8941 45.6569C21.2551 45.7762 21.5559 45.9751 21.8165 46.2734C22.0772 46.5716 22.2176 46.9892 22.2176 47.5261C22.2176 48.0233 22.0772 48.4608 21.7965 48.8386C21.5158 49.1965 21.1348 49.4749 20.6736 49.6738C20.2124 49.8726 19.7111 49.9721 19.1697 49.9721C18.127 49.9522 17.3249 49.7135 16.7634 49.2363Z" fill="#020000"/>
<path d="M30.479 49.8925H23.4006L26.9498 42.2764L30.479 49.8925Z" fill="#020000"/>
<path d="M6.63722 46.9892C6.63722 47.9238 6.37655 48.6397 5.83514 49.1766C5.29374 49.6936 4.53176 49.9521 3.58932 49.9521C3.02787 49.9521 2.50651 49.8328 2.02527 49.5743C1.54402 49.3158 1.16303 48.9579 0.882304 48.4806C0.601576 48.0034 0.461212 47.4665 0.461212 46.85V45.299C0.461212 44.7024 0.601576 44.1655 0.862252 43.6882C1.12293 43.211 1.50392 42.8531 1.96511 42.5945C2.42631 42.336 2.96771 42.1968 3.54922 42.1968C4.51171 42.1968 5.25364 42.4554 5.79504 42.9724C6.33644 43.4894 6.61717 44.2251 6.61717 45.1598H4.67213C4.67213 44.8018 4.57187 44.5234 4.37135 44.3246C4.19088 44.1257 3.91015 44.0263 3.52917 44.0263C3.20833 44.0263 2.92761 44.1257 2.70703 44.3445C2.48646 44.5433 2.3862 44.8416 2.3862 45.2194V46.9693C2.3862 47.3471 2.50651 47.6454 2.72709 47.8443C2.94766 48.063 3.22839 48.1624 3.56927 48.1624C4.33125 48.1624 4.69218 47.7846 4.69218 47.0091H6.63722V46.9892Z" fill="#020000"/>
<path d="M54 41.4213H46.9217L50.4709 33.8052L54 41.4213Z" fill="#020000"/>
<path d="M40.3245 40.7651C39.7631 40.2878 39.5024 39.5521 39.5024 38.5976H41.2269C41.2269 38.9953 41.3472 39.3135 41.5878 39.5123C41.8284 39.7311 42.1894 39.8305 42.6305 39.8305C42.9915 39.8305 43.2922 39.7708 43.4928 39.6515C43.7133 39.5322 43.8136 39.3532 43.8136 39.0947C43.8136 38.8959 43.7133 38.7368 43.4928 38.6572C43.2722 38.5578 43.0717 38.4982 42.8511 38.4584C42.6305 38.4186 42.5102 38.3987 42.4501 38.3987C41.9087 38.2993 41.4274 38.1601 41.0264 38.0209C40.6253 37.8618 40.3045 37.6431 40.0238 37.3249C39.7631 37.0068 39.6227 36.609 39.6227 36.092C39.6227 35.5949 39.7631 35.1574 40.0238 34.7995C40.2844 34.4415 40.6454 34.183 41.1066 34.0041C41.5477 33.8251 42.049 33.7455 42.5704 33.7455C43.212 33.7455 43.7735 33.8649 44.2547 34.1035C44.736 34.3421 45.0969 34.7 45.3576 35.1972C45.498 35.4358 45.5782 35.6545 45.5982 35.8733C45.6183 36.092 45.6383 36.2909 45.6383 36.5096H43.9139C43.9139 36.1318 43.8136 35.8534 43.6131 35.6744C43.4126 35.4955 43.0917 35.396 42.6506 35.396C42.3097 35.396 42.029 35.4557 41.8485 35.575C41.648 35.6943 41.5678 35.8534 41.5678 36.0523C41.5678 36.271 41.6881 36.45 41.9488 36.5494C42.2094 36.6488 42.5303 36.7482 42.9113 36.8278C43.5529 36.9471 44.0542 37.0664 44.4152 37.1857C44.7761 37.305 45.0769 37.5039 45.3375 37.8022C45.5982 38.1005 45.7386 38.518 45.7386 39.0549C45.7386 39.5521 45.5982 39.9896 45.3175 40.3674C45.0368 40.7253 44.6558 41.0037 44.1946 41.2026C43.7334 41.4014 43.2321 41.5009 42.6907 41.5009C41.668 41.5009 40.886 41.2622 40.3245 40.7651Z" fill="#020000"/>
<path d="M32.4642 40.7651C31.9027 40.2878 31.6421 39.5521 31.6421 38.5976H33.3665C33.3665 38.9953 33.4868 39.3135 33.7275 39.5123C33.9681 39.7311 34.329 39.8305 34.7702 39.8305C35.1311 39.8305 35.4319 39.7708 35.6324 39.6515C35.853 39.5322 35.9532 39.3532 35.9532 39.0947C35.9532 38.8959 35.853 38.7368 35.6324 38.6572C35.4118 38.5578 35.2113 38.4982 34.9907 38.4584C34.7702 38.4186 34.6499 38.3987 34.5897 38.3987C34.0483 38.2993 33.567 38.1601 33.166 38.0209C32.765 37.8618 32.4441 37.6431 32.1634 37.3249C31.9027 37.0068 31.7624 36.609 31.7624 36.092C31.7624 35.5949 31.9027 35.1574 32.1634 34.7995C32.4241 34.4415 32.785 34.183 33.2462 34.0041C33.6874 33.8251 34.1887 33.7455 34.71 33.7455C35.3517 33.7455 35.9131 33.8649 36.3944 34.1035C36.8756 34.3421 37.2366 34.7 37.4972 35.1972C37.6376 35.4358 37.7178 35.6545 37.7379 35.8733C37.7579 36.092 37.778 36.2909 37.778 36.5096H36.0535C36.0535 36.1318 35.9532 35.8534 35.7527 35.6744C35.5522 35.4955 35.2314 35.396 34.7902 35.396C34.4493 35.396 34.1686 35.4557 33.9881 35.575C33.7876 35.6943 33.7074 35.8534 33.7074 36.0523C33.7074 36.271 33.8277 36.45 34.0884 36.5494C34.3491 36.6488 34.6699 36.7482 35.0509 36.8278C35.6926 36.9471 36.1939 37.0664 36.5548 37.1857C36.9157 37.305 37.2165 37.5039 37.4772 37.8022C37.7379 38.1005 37.8782 38.518 37.8782 39.0549C37.8782 39.5521 37.7379 39.9896 37.4571 40.3674C37.1764 40.7253 36.7954 41.0037 36.3342 41.2026C35.873 41.4014 35.3717 41.5009 34.8303 41.5009C33.8077 41.5009 33.0056 41.2622 32.4642 40.7651Z" fill="#020000"/>
<path d="M24.2429 35.2767C24.5236 34.7995 24.8845 34.4415 25.3658 34.1631C25.847 33.8847 26.3483 33.7455 26.9098 33.7455C27.4712 33.7455 27.9926 33.8847 28.4538 34.1631C28.935 34.4415 29.296 34.8194 29.5767 35.2767C29.8574 35.754 29.9978 36.2511 29.9978 36.8079V38.4385C29.9978 38.9953 29.8574 39.4924 29.5767 39.9697C29.296 40.4469 28.935 40.8049 28.4538 41.0833C27.9725 41.3617 27.4712 41.5009 26.9098 41.5009C26.3483 41.5009 25.827 41.3617 25.3658 41.0833C24.8845 40.8049 24.5236 40.427 24.2429 39.9697C23.9621 39.4924 23.8218 38.9953 23.8218 38.4385V36.8079C23.8218 36.271 23.9621 35.754 24.2429 35.2767ZM26.0877 39.2936C26.3082 39.5322 26.5689 39.6515 26.9098 39.6515C27.2507 39.6515 27.5113 39.5322 27.7319 39.2936C27.9525 39.055 28.0527 38.7567 28.0527 38.4385V36.8079C28.0527 36.4698 27.9525 36.1716 27.7319 35.9528C27.5113 35.7142 27.2507 35.6148 26.9098 35.6148C26.5689 35.6148 26.2882 35.7341 26.0877 35.9528C25.8671 36.1915 25.7668 36.4698 25.7668 36.8079V38.4385C25.7668 38.7766 25.8671 39.055 26.0877 39.2936Z" fill="#020000"/>
<path d="M16.1018 41.4213V33.8052H16.5229L21.2752 38.9754V33.8052H22.2778V41.4213H16.1018Z" fill="#020000"/>
<path d="M7.07835 41.4213H0L3.5492 33.8052L7.07835 41.4213Z" fill="#020000"/>
<path d="M2.84738 0H0V28.1776H2.84738V0Z" fill="#020000"/>
<path d="M7.11847 0H4.27109V28.1776H7.11847V0Z" fill="#020000"/>
<path d="M11.3695 5.62759H8.52209V28.1776H11.3695V5.62759Z" fill="#020000"/>
<path d="M15.6406 14.0988H12.7932V28.1975H15.6406V14.0988Z" fill="#020000"/>
<path d="M19.8916 19.7263H17.0442V28.1776H19.8916V19.7263Z" fill="#020000"/>
<path d="M24.1627 0H21.3153V28.1776H24.1627V0Z" fill="#020000"/>
<path d="M28.4337 8.45129H25.5864V28.1776H28.4337V8.45129Z" fill="#020000"/>
<path d="M32.6848 5.62759H29.8374V28.1776H32.6848V5.62759Z" fill="#020000"/>
<path d="M36.9558 2.8237H34.1085V28.1975H36.9558V2.8237Z" fill="#020000"/>
<path d="M41.2069 0H38.3595V19.7263H41.2069V0Z" fill="#020000"/>
<path d="M45.4779 2.8237H42.6306V28.1975H45.4779V2.8237Z" fill="#020000"/>
<path d="M49.749 5.62759H46.9016V28.1776H49.749V5.62759Z" fill="#020000"/>
<path d="M54 8.45129H51.1526V28.1776H54V8.45129Z" fill="#020000"/>
</svg>
