<svg xmlns="http://www.w3.org/2000/svg" fill="none" viewBox="0 0 305 79">
  <path fill="#fff" d="M289.388 76.993c-1.502-1.3381-2.253-3.4009-2.2-6.0769h4.668c0 1.115.322 2.007.966 2.5645.643.6133 1.609.892 2.789.892.966 0 1.771-.1672 2.361-.5017.59-.3345.858-.8363.858-1.5611 0-.5575-.268-1.0035-.858-1.2265-.59-.2787-1.18-.446-1.717-.5575-.59-.1115-.912-.1673-1.073-.1673-1.448-.2787-2.736-.669-3.809-1.0592-1.073-.4461-1.931-1.0593-2.682-1.9513-.698-.8921-1.073-2.0071-1.073-3.4566 0-1.3938.375-2.6204 1.073-3.6239.697-1.0035 1.663-1.7283 2.897-2.23 1.18-.5018 2.521-.7248 3.97-.7248 1.717 0 3.219.3345 4.506 1.0035 1.288.669 2.254 1.6726 2.951 3.0663.376.6691.59 1.2823.644 1.8956.053.6133.107 1.1708.107 1.784h-4.667c0-1.0592-.269-1.8398-.805-2.3415-.537-.5018-1.395-.7805-2.575-.7805-.912 0-1.663.1672-2.146.5017-.537.3345-.751.7805-.751 1.3381 0 .6132.321 1.115 1.019 1.3937.697.2788 1.556.5576 2.575.7806 1.717.3345 3.058.669 4.024 1.0035.966.3345 1.77.892 2.468 1.7283.697.8363 1.073 2.007 1.073 3.5123 0 1.3938-.376 2.6204-1.127 3.6796-.751 1.0036-1.77 1.7841-3.004 2.3416-1.234.5575-2.575.8363-4.024.8363-2.843-.0558-4.989-.7248-6.438-2.0628zM276.727 78.8328V62.8879h-6.868V57.48h16.578v5.4079h-6.867v15.9449h-2.843zM254.569 76.993c-1.502-1.3381-2.253-3.4009-2.2-6.0769h4.668c0 1.115.322 2.007.966 2.5645.644.6133 1.609.892 2.79.892.965 0 1.77-.1672 2.36-.5017.59-.3345.859-.8363.859-1.5611 0-.5575-.269-1.0035-.859-1.2265-.59-.2787-1.18-.446-1.717-.5575-.59-.1115-.912-.1673-1.073-.1673-1.448-.2787-2.736-.669-3.809-1.0592-1.073-.4461-1.931-1.0593-2.682-1.9513-.698-.8921-1.073-2.0071-1.073-3.4566 0-1.3938.375-2.6204 1.073-3.6239.697-1.0035 1.663-1.7283 2.897-2.23 1.18-.5018 2.521-.7248 3.97-.7248 1.717 0 3.219.3345 4.507 1.0035 1.287.669 2.253 1.6726 2.95 3.0663.376.6691.591 1.2823.644 1.8956.054.6133.107 1.1708.107 1.784h-4.667c0-1.0592-.268-1.8398-.805-2.3415-.536-.5018-1.395-.7805-2.575-.7805-.912 0-1.663.1672-2.146.5017-.537.3345-.751.7805-.751 1.3381 0 .6132.322 1.115 1.019 1.3937.698.2788 1.556.5576 2.575.7806 1.717.3345 3.058.669 4.024 1.0035.966.3345 1.771.892 2.468 1.7283.698.8363 1.073 2.007 1.073 3.5123 0 1.3938-.375 2.6204-1.127 3.6796-.751 1.0036-1.77 1.7841-3.004 2.3416-1.234.5575-2.575.8363-4.024.8363-2.843-.0558-4.936-.7248-6.438-2.0628zM251.618 78.8328H232.68l9.496-21.3528 9.442 21.3528zM232.734 70.6931c0 2.6203-.698 4.6273-2.146 6.1326C229.139 78.2753 227.1 79 224.579 79c-1.502 0-2.897-.3345-4.185-1.0592-1.288-.7248-2.307-1.7283-3.058-3.0664-.751-1.338-1.127-2.8433-1.127-4.5716v-4.3486c0-1.6726.376-3.1779 1.073-4.5159.698-1.3381 1.717-2.3416 2.951-3.0664 1.234-.7247 2.683-1.115 4.238-1.115 2.576 0 4.561.7248 6.009 2.1743 1.449 1.4496 2.2 3.5124 2.2 6.1327h-5.204c0-1.0035-.268-1.7841-.805-2.3416-.483-.5575-1.234-.8362-2.253-.8362-.859 0-1.61.2787-2.2.892-.59.5575-.858 1.3938-.858 2.4531v4.9061c0 1.0593.322 1.8956.912 2.4531.59.6132 1.341.892 2.253.892 2.039 0 3.005-1.0593 3.005-3.2336h5.204v-.0557zM197.646 78.8328V57.48h7.619c1.502 0 2.897.3902 4.131 1.1707 1.287.7806 2.253 1.8399 3.004 3.1221.751 1.3381 1.127 2.7319 1.127 4.2929v4.1256c0 1.5611-.376 3.0106-1.127 4.2929-.751 1.3381-1.77 2.3416-3.004 3.1221-1.288.7805-2.629 1.1708-4.131 1.1708h-7.619v.0557zM180.318 61.6055c.751-1.338 1.716-2.3415 3.004-3.122 1.288-.7806 2.629-1.1708 4.131-1.1708 1.502 0 2.897.3902 4.131 1.1708 1.288.7805 2.253 1.8398 3.005 3.122.751 1.3381 1.126 2.7319 1.126 4.2929V70.47c0 1.5611-.375 2.9549-1.126 4.2929-.752 1.338-1.717 2.3416-3.005 3.1221-1.287.7805-2.629 1.1708-4.131 1.1708-1.502 0-2.897-.3903-4.131-1.1708-1.288-.7805-2.253-1.8398-3.004-3.1221-.751-1.338-1.127-2.7318-1.127-4.2929v-4.5716c.054-1.561.429-3.0106 1.127-4.2929zm4.935 11.2619c.591.669 1.288 1.0035 2.2 1.0035.912 0 1.61-.3345 2.2-1.0035.59-.6691.858-1.5053.858-2.4531v-4.5716c0-.9478-.268-1.7841-.858-2.4531s-1.288-1.0035-2.2-1.0035c-.912 0-1.663.3345-2.2 1.0035-.59.669-.858 1.4495-.858 2.4531v4.5716c0 .9478.322 1.784.858 2.4531zM161.916 78.8328V57.48h8.584c1.448 0 2.682.2787 3.701.8362 1.181.6133 2.146 1.5611 2.844 2.7319.697 1.1707 1.073 2.453 1.073 3.9026 0 1.4495-.376 2.7318-1.073 3.9026-.698 1.1708-1.663 2.1185-2.844 2.7318-1.019.5575-2.253.8363-3.755.8363h-3.219v6.4672h-5.311v-.0558zM288.047 32.113h14.968v5.4079h-9.603v2.6761h7.94v5.1291h-7.94v2.7318h9.603v5.4079h-14.968V32.113zM266.748 53.4658V32.113h7.618c1.502 0 2.897.3903 4.131 1.1708 1.288.7805 2.253 1.8398 3.005 3.1221.751 1.338 1.126 2.7318 1.126 4.2928v4.1256c0 1.5611-.375 3.0106-1.126 4.2929-.752 1.3381-1.771 2.3416-3.005 3.1221-1.288.7805-2.629 1.1708-4.131 1.1708h-7.618v.0557zM242.069 53.4658H223.13l9.496-21.3528 9.443 21.3528zM205.426 51.626c-1.502-1.3381-2.254-3.4009-2.2-6.077h4.668c0 1.1151.322 2.0071.965 2.5646.644.6133 1.61.892 2.79.892.966 0 1.771-.1672 2.361-.5017.59-.3345.858-.8363.858-1.5611 0-.5575-.268-1.0035-.858-1.2265-.59-.2788-1.18-.446-1.717-.5575-.59-.1115-.912-.1673-1.073-.1673-1.449-.2787-2.736-.669-3.809-1.0592-1.073-.4461-1.932-1.0593-2.683-1.9513-.697-.8921-1.073-2.0071-1.073-3.4566 0-1.3938.376-2.6204 1.073-3.6239.698-1.0035 1.664-1.7283 2.897-2.23 1.181-.5018 2.522-.7248 3.971-.7248 1.716 0 3.219.3345 4.506 1.0035 1.288.669 2.253 1.6726 2.951 3.0664.375.669.59 1.2822.644 1.8955.053.6133.107 1.1708.107 1.784h-4.668c0-1.0592-.268-1.8398-.804-2.3415-.537-.5018-1.395-.7805-2.575-.7805-.913 0-1.664.1672-2.146.5017-.537.3345-.752.7806-.752 1.3381 0 .6132.322 1.115 1.02 1.3938.697.2787 1.556.5575 2.575.7805 1.717.3345 3.058.669 4.024 1.0035.965.3345 1.77.892 2.468 1.7283.697.8363 1.073 2.007 1.073 3.5123 0 1.3938-.376 2.6204-1.127 3.6796-.751 1.0036-1.77 1.7841-3.004 2.3416-1.234.5575-2.576.8363-4.024.8363-2.844 0-4.99-.7248-6.438-2.0628zM200.114 53.4658h-18.938l9.496-21.3528 9.442 21.3528zM178.279 45.3261c0 2.6204-.698 4.6274-2.146 6.1327-1.449 1.4496-3.487 2.1743-6.009 2.1743-1.502 0-2.897-.3345-4.185-1.0592-1.287-.7248-2.307-1.7283-3.058-3.0664-.751-1.338-1.126-2.8433-1.126-4.5716v-4.3487c0-1.6725.375-3.1778 1.073-4.5158.697-1.3381 1.716-2.3416 2.95-3.0664 1.234-.7248 2.683-1.115 4.239-1.115 2.575 0 4.56.7248 6.009 2.1743 1.448 1.4495 2.199 3.5124 2.199 6.1327h-5.204c0-1.0035-.268-1.7841-.805-2.3416-.482-.5575-1.234-.8363-2.253-.8363-.858 0-1.609.2788-2.2.8921-.59.5575-.858 1.3938-.858 2.453v4.9062c0 1.0593.322 1.8955.912 2.4531.59.6132 1.341.892 2.253.892 2.039 0 3.005-1.0593 3.005-3.2336h5.204v-.0558zM305 29.7714h-18.938l9.496-21.35285L305 29.7714zM268.411 27.9316c-1.502-1.3381-2.2-3.4009-2.2-6.0769h4.614c0 1.115.322 2.007.966 2.5645.644.6133 1.609.8921 2.79.8921.965 0 1.77-.1673 2.307-.5018.59-.3345.858-.8363.858-1.5611 0-.5575-.268-1.0035-.858-1.2265-.591-.2787-1.127-.446-1.717-.5575-.59-.1115-.912-.1673-1.073-.1673-1.449-.2787-2.736-.669-3.809-1.0592-1.073-.4461-1.932-1.0593-2.683-1.9513-.697-.8921-1.073-2.0071-1.073-3.4566 0-1.4496.376-2.6204 1.073-3.6239.698-1.0035 1.663-1.7283 2.897-2.23006 1.18-.50177 2.522-.72477 3.917-.72477 1.716 0 3.219.33451 4.506 1.00353 1.288.66901 2.254 1.6725 2.951 3.0663.376.6691.59 1.2823.644 1.8956.053.6133.107 1.1708.107 1.784h-4.614c0-1.0592-.268-1.8398-.805-2.3415-.536-.5018-1.394-.7806-2.575-.7806-.912 0-1.663.1673-2.146.5018-.536.3345-.751.7805-.751 1.3381 0 .6132.322 1.115 1.019 1.3937.698.2788 1.556.5576 2.576.7806 1.717.3345 3.058.669 4.023 1.0035.966.3345 1.771.892 2.468 1.7283.698.8363 1.073 2.007 1.073 3.5123 0 1.3938-.375 2.6204-1.126 3.6796-.751 1.0036-1.771 1.7841-3.005 2.3416-1.234.5575-2.575.8363-4.023.8363-2.683-.0558-4.829-.7248-6.331-2.0628zM247.38 27.9316c-1.502-1.3381-2.2-3.4009-2.2-6.0769h4.614c0 1.115.322 2.007.966 2.5645.644.6133 1.61.8921 2.79.8921.965 0 1.77-.1673 2.307-.5018.59-.3345.858-.8363.858-1.5611 0-.5575-.268-1.0035-.858-1.2265-.59-.2787-1.127-.446-1.717-.5575-.59-.1115-.912-.1673-1.073-.1673-1.449-.2787-2.736-.669-3.809-1.0592-1.073-.4461-1.932-1.0593-2.683-1.9513-.697-.8921-1.073-2.0071-1.073-3.4566 0-1.4496.376-2.6204 1.073-3.6239.698-1.0035 1.663-1.7283 2.897-2.23006 1.181-.50177 2.522-.72477 3.917-.72477 1.717 0 3.219.33451 4.506 1.00353 1.288.66901 2.254 1.6725 2.951 3.0663.376.6691.59 1.2823.644 1.8956.054.6133.107 1.1708.107 1.784h-4.614c0-1.0592-.268-1.8398-.804-2.3415-.537-.5018-1.395-.7806-2.576-.7806-.912 0-1.663.1673-2.146.5018-.536.3345-.751.7805-.751 1.3381 0 .6132.322 1.115 1.02 1.3937.697.2788 1.556.5576 2.575.7806 1.717.3345 3.058.669 4.024 1.0035.965.3345 1.77.892 2.467 1.7283.698.8363 1.073 2.007 1.073 3.5123 0 1.3938-.375 2.6204-1.126 3.6796-.751 1.0036-1.771 1.7841-3.005 2.3416-1.233.5575-2.575.8363-4.023.8363-2.736-.0558-4.829-.7248-6.331-2.0628zM225.383 12.5441c.752-1.338 1.717-2.3415 3.005-3.12205 1.288-.78052 2.629-1.17078 4.131-1.17078 1.502 0 2.897.39026 4.131 1.17078 1.288.78055 2.253 1.83985 3.005 3.12205.751 1.3381 1.126 2.7319 1.126 4.2929v4.5716c0 1.5611-.375 2.9549-1.126 4.2929-.752 1.3381-1.717 2.3416-3.005 3.1221-1.288.7805-2.629 1.1708-4.131 1.1708-1.502 0-2.897-.3903-4.131-1.1708-1.288-.7805-2.253-1.8398-3.005-3.1221-.751-1.338-1.126-2.7318-1.126-4.2929V16.837c.053-1.561.375-2.9548 1.126-4.2929zm4.936 11.2619c.59.669 1.288 1.0035 2.2 1.0035.912 0 1.61-.3345 2.2-1.0035.59-.6691.858-1.5053.858-2.3974V16.837c0-.9478-.268-1.784-.858-2.3973-.59-.669-1.288-.9478-2.2-.9478-.912 0-1.663.3345-2.2.9478-.59.669-.858 1.4495-.858 2.3973v4.5716c0 .8921.268 1.7283.858 2.3974zM203.602 29.7714V8.41855h1.126L217.443 22.914V8.41855h2.683V29.7714h-16.524zM179.459 29.7232h-18.938l9.496-21.35287 9.442 21.35287zM7.61829 0H0v79h7.61829V0zM19.0457 0h-7.6183v79h7.6183V0zM30.4195 15.7777h-7.6183V79h7.6183V15.7777zM41.847 39.5279h-7.6184v39.5279h7.6184V39.5279zM53.2207 55.3055h-7.6183V79h7.6183V55.3055zM64.6481 0h-7.6183v79h7.6183V0zM76.0757 23.6944h-7.6182v55.3057h7.6182V23.6944zM87.4494 15.7777h-7.6183V79h7.6183V15.7777zM98.877 7.91669h-7.6184V79.0557h7.6184V7.91669zM110.251 0h-7.619v55.3056h7.619V0zM121.678 7.91669h-7.618V79.0557h7.618V7.91669zM133.106 15.7777h-7.619V79h7.619V15.7777zM144.479 23.6944h-7.618v55.3057h7.618V23.6944z"/>
</svg>
