<svg width="156" height="216" viewBox="0 0 156 216" fill="none" xmlns="http://www.w3.org/2000/svg">
<g clip-path="url(#clip0)">
<path d="M8.60005 87H4.30005V116.3H8.60005V87Z" fill="#29292B"/>
<path d="M17.2 25.8H12.9V116.3H17.2V25.8Z" fill="#29292B"/>
<path d="M25.8 87H21.5V116.3H25.8V87Z" fill="#29292B"/>
<path d="M34.5 65.3999H30.2V116.4H34.5V65.3999Z" fill="#29292B"/>
<path d="M43.1 38.8H38.8V116.3H43.1V38.8Z" fill="#29292B"/>
<path d="M51.7 17.2H47.4V116.3H51.7V17.2Z" fill="#29292B"/>
<path d="M60.3 43.1001H56V116.3H60.3V43.1001Z" fill="#29292B"/>
<path d="M68.9 62.3H64.6V116.4H68.9V62.3Z" fill="#29292B"/>
<path d="M77.5 86.2H73.2V116.4H77.5V86.2Z" fill="#29292B"/>
<path d="M86.2 64.6001H81.9V116.3H86.2V64.6001Z" fill="#29292B"/>
<path d="M94.8 56H90.5V116.3H94.8V56Z" fill="#29292B"/>
<path d="M103.4 18.8999H99.1V116.3H103.4V18.8999Z" fill="#29292B"/>
<path d="M112 56.1001H107.7V116.3H112V56.1001Z" fill="#29292B"/>
<path d="M120.6 94.8H116.3V116.3H120.6V94.8Z" fill="#29292B"/>
<path d="M129.2 80.8H124.9V116.3H129.2V80.8Z" fill="#29292B"/>
<path d="M137.9 64.6001H133.6V116.3H137.9V64.6001Z" fill="#29292B"/>
<path d="M146.5 56.1001H142.2V116.3H146.5V56.1001Z" fill="#29292B"/>
<path d="M137.9 47.3999H133.6V51.6999H137.9V47.3999Z" fill="#29292B"/>
<path d="M129.2 34.5H124.9V38.8H129.2V34.5Z" fill="#29292B"/>
<path d="M120.6 86.2H116.3V90.5H120.6V86.2Z" fill="#29292B"/>
<path d="M120.6 68.8999H116.3V73.1999H120.6V68.8999Z" fill="#29292B"/>
<path d="M129.2 56H124.9V64.6H129.2V56Z" fill="#29292B"/>
<path d="M77.5 56H73.2V60.3H77.5V56Z" fill="#29292B"/>
<path d="M146.5 17.2H142.2V21.5H146.5V17.2Z" fill="#29292B"/>
<path d="M146.5 4.30005H142.2V8.60005H146.5V4.30005Z" fill="#29292B"/>
<path d="M112 38.8H107.7V43.1H112V38.8Z" fill="#29292B"/>
<path d="M94.8 43.1001H90.5V47.4001H94.8V43.1001Z" fill="#29292B"/>
<path d="M60.3 25.8H56V30.1H60.3V25.8Z" fill="#29292B"/>
<path d="M68.9 12.8999H64.6V17.1999H68.9V12.8999Z" fill="#29292B"/>
<path d="M43.1 21.5H38.8V25.8H43.1V21.5Z" fill="#29292B"/>
<path d="M17.2 12.8999H12.9V17.1999H17.2V12.8999Z" fill="#29292B"/>
<path d="M8.60005 47.3999H4.30005V51.6999H8.60005V47.3999Z" fill="#29292B"/>
<path d="M34.5 47.3999H30.2V55.9999H34.5V47.3999Z" fill="#29292B"/>
<path d="M51.7 0H47.4V4.3H51.7V0Z" fill="#29292B"/>
<path d="M68.9 43.1001H64.6V51.7001H68.9V43.1001Z" fill="#29292B"/>
<path d="M77.5 64.6001H73.2V73.2001H77.5V64.6001Z" fill="#29292B"/>
<path d="M86.2 51.7H81.9V60.2999H86.2V51.7Z" fill="#29292B"/>
<path d="M112 25.8H107.7V30.1H112V25.8Z" fill="#29292B"/>
<path d="M155.1 55.8999H150.8V116.1H155.1V55.8999Z" fill="#29292B"/>
<path d="M155.1 34.5H150.8V38.8H155.1V34.5Z" fill="#29292B"/>
<path d="M142.2 116.3H137.9V146.5H142.2V116.3Z" fill="#F95E3C"/>
<path d="M133.5 116.3H129.2V168H133.5V116.3Z" fill="#F95E3C"/>
<path d="M124.9 116.3H120.6V176.6H124.9V116.3Z" fill="#F95E3C"/>
<path d="M116.3 116.3H112V206.8H116.3V116.3Z" fill="#F95E3C"/>
<path d="M107.7 116.3H103.4V176.5H107.7V116.3Z" fill="#F95E3C"/>
<path d="M99.1 116.3H94.8V137.8H99.1V116.3Z" fill="#F95E3C"/>
<path d="M90.5 116.3H86.2V151.8H90.5V116.3Z" fill="#F95E3C"/>
<path d="M81.8 116.3H77.5V168H81.8V116.3Z" fill="#F95E3C"/>
<path d="M73.2 116.3H68.9V176.5H73.2V116.3Z" fill="#F95E3C"/>
<path d="M64.6 116.3H60.3V148.7H64.6V116.3Z" fill="#F95E3C"/>
<path d="M56 116.3H51.7V164.2H56V116.3Z" fill="#F95E3C"/>
<path d="M47.4 116.3H43.1V179.6H47.4V116.3Z" fill="#F95E3C"/>
<path d="M38.8 116.3H34.5V198.2H38.8V116.3Z" fill="#F95E3C"/>
<path d="M30.1 116.3H25.8V180.9H30.1V116.3Z" fill="#F95E3C"/>
<path d="M21.5 116.3H17.2V161.1H21.5V116.3Z" fill="#F95E3C"/>
<path d="M12.9 116.3H8.59998V129.2H12.9V116.3Z" fill="#F95E3C"/>
<path d="M4.3 116.3H0V180.9H4.3V116.3Z" fill="#F95E3C"/>
<path d="M8.64116 159.402H12.9412V155.102H8.64116V159.402Z" fill="#F95E3C"/>
<path d="M17.2742 185.292H21.5742V176.692H17.2742V185.292Z" fill="#F95E3C"/>
<path d="M77.605 185.301H81.905V181.001H77.605V185.301Z" fill="#F95E3C"/>
<path d="M86.1379 198.15H90.4379V193.85H86.1379V198.15Z" fill="#F95E3C"/>
<path d="M94.7709 146.452H99.0709V142.152H94.7709V146.452Z" fill="#F95E3C"/>
<path d="M94.7709 163.718H99.0709V159.418H94.7709V163.718Z" fill="#F95E3C"/>
<path d="M86.1379 176.659H90.4379V168.059H86.1379V176.659Z" fill="#F95E3C"/>
<path d="M137.836 176.668H142.136V172.368H137.836V176.668Z" fill="#F95E3C"/>
<path d="M68.972 215.416H73.272V211.116H68.972V215.416Z" fill="#F95E3C"/>
<path d="M103.404 193.833H107.704V189.534H103.404V193.833Z" fill="#F95E3C"/>
<path d="M120.67 189.517H124.97V185.217H120.67V189.517Z" fill="#F95E3C"/>
<path d="M137.836 168.026H142.136V159.426H137.836V168.026Z" fill="#F95E3C"/>
<path d="M129.303 180.976H133.603V172.376H129.303V180.976Z" fill="#F95E3C"/>
<path d="M103.404 206.783H107.704V202.483H103.404V206.783Z" fill="#F95E3C"/>
<path d="M51.7061 180.976H56.0061V172.376H51.7061V180.976Z" fill="#F95E3C"/>
<path d="M25.9072 198.15H30.2072V193.85H25.9072V198.15Z" fill="#F95E3C"/>
<path d="M34.4401 211.1H38.7401V206.8H34.4401V211.1Z" fill="#F95E3C"/>
<path d="M51.7061 198.15H56.0061V193.85H51.7061V198.15Z" fill="#F95E3C"/>
<path d="M0.00822735 193.833H4.30823L4.30823 189.534H0.00822735L0.00822735 193.833Z" fill="#F95E3C"/>
<path d="M8.64116 142.127H12.9412L12.9412 133.527H8.64116V142.127Z" fill="#F95E3C"/>
<path d="M150.8 116.2H146.5V176.4H150.8V116.2Z" fill="#F95E3C"/>
<path d="M146.469 185.57H150.769V181.57H146.469V185.57Z" fill="#F95E3C"/>
<path d="M146.469 197.581H150.769V193.581H146.469V197.581Z" fill="#F95E3C"/>
</g>
<defs>
<clipPath id="clip0">
<rect width="155.1" height="215.4" fill="white"/>
</clipPath>
</defs>
</svg>
