<svg xmlns="http://www.w3.org/2000/svg" fill="none" viewBox="0 0 59 434">
  <g fill="currentColor" clip-path="url(#new-episode)">
    <path d="M5.35116 116.469H0v272.51h5.35116v-272.51zM16.0992 6.45776H10.748V362.781h5.3512V6.45776zM26.8015 84.4551h-5.3512V349.866h5.3512V84.4551zM37.5496 58.2576h-5.3511V336.95h5.3511V58.2576zM48.2519 32.3347h-5.3511V323.851h5.3511V32.3347zM59 0h-5.3512v311.027H59V0zM5.35116 401.62H0v12.961h5.35116V401.62zM26.8015 369.285h-5.3512v12.961h5.3512v-12.961zM59 343.408h-5.3512v12.961H59v-12.961zM5.35116 427.497H0v6.457h5.35116v-6.457zM16.0992 375.743H10.748v6.457h5.3512v-6.457zM59 323.989h-5.3512v6.457H59v-6.457zM37.5496 349.865h-5.3511v6.458h5.3511v-6.458zM26.8015 395.162h-5.3512v6.457h5.3512v-6.457z"/>
  </g>
</svg>
