<svg width="160" height="120" viewBox="0 0 160 120" fill="none" xmlns="http://www.w3.org/2000/svg">
<path d="M10 90H5V120H10V90Z" fill="#29292B"/>
<path d="M80 90H75V120H80V90Z" fill="#29292B"/>
<path d="M90 55H85V120H90V55Z" fill="#29292B"/>
<path d="M100 30H95V120H100V30Z" fill="#29292B"/>
<path d="M110 105H105V120H110V105Z" fill="#29292B"/>
<path d="M30 80H25V120H30V80Z" fill="#29292B"/>
<path d="M40 70H35V120H40V70Z" fill="#29292B"/>
<path d="M50 40H45V120H50V40Z" fill="#29292B"/>
<path d="M60 15H55V120H60V15Z" fill="#29292B"/>
<path d="M140 20.3H135V120H140V20.3Z" fill="#29292B"/>
<path d="M70 60H65V120H70V60Z" fill="#29292B"/>
<path d="M150 60H145V120H150V60Z" fill="#29292B"/>
<path d="M20 35H15V120H20V35Z" fill="#29292B"/>
<path d="M10 50H5V55H10V50Z" fill="#29292B"/>
<path d="M110 95H105V100H110V95Z" fill="#29292B"/>
<path d="M20 20H15V25H20V20Z" fill="#29292B"/>
<path d="M50.2002 24.8H45.2002V29.8H50.2002V24.8Z" fill="#29292B"/>
<path d="M80 50H75V55H80V50Z" fill="#29292B"/>
<path d="M90 35H85V40H90V35Z" fill="#29292B"/>
<path d="M150 40H145V45H150V40Z" fill="#29292B"/>
<path d="M140 5H135V10H140V5Z" fill="#29292B"/>
<path d="M60 0H55V5H60V0Z" fill="#29292B"/>
<path d="M40 50.2H35V60.2H40V50.2Z" fill="#29292B"/>
<path d="M160 70H155V120H160V70Z" fill="#29292B"/>
<path d="M160 50H155V60H160V50Z" fill="#29292B"/>
<path d="M130 70H125V120H130V70Z" fill="#29292B"/>
<path d="M130 35H125V45H130V35Z" fill="#29292B"/>
<path d="M70 35H65V45H70V35Z" fill="#29292B"/>
<path d="M80 65H75V75H80V65Z" fill="#29292B"/>
<path d="M120 90H115V120H120V90Z" fill="#29292B"/>
<path d="M120 50H115V55H120V50Z" fill="#29292B"/>
<path d="M120 65H115V75H120V65Z" fill="#29292B"/>
</svg>
