<svg id="wave" xmlns="http://www.w3.org/2000/svg" viewBox="0 0 156 108">
  <g>
    <path id="Line_1" data-name="Line 1" d="M8.60005 87h-4.3v29.3h4.3V87z"/>
    <path id="Line_2" data-name="Line 2" d="M17.2 25.8h-4.3v90.5h4.3V25.8z"/>
    <path id="Line_3" data-name="Line 3" d="M25.8 87h-4.3v29.3h4.3V87z"/>
    <path id="Line_4" data-name="Line 4" d="M34.5 65.3999h-4.3V116.4h4.3V65.3999z"/>
    <path id="Line_5" data-name="Line 5" d="M43.1 38.8h-4.3v77.5h4.3V38.8z"/>
    <path id="Line_6" data-name="Line 6" d="M51.7 17.2h-4.3v99.1h4.3V17.2z"/>
    <path id="Line_7" data-name="Line 7" d="M60.3 43.1001H56V116.3h4.3V43.1001z"/>
    <path id="Line_8" data-name="Line 8" d="M68.9 62.3h-4.3v54.1h4.3V62.3z"/>
    <path id="Line_9" data-name="Line 9" d="M77.5 86.2h-4.3v30.2h4.3V86.2z"/>
    <path id="Line_10" data-name="Line 10" d="M86.2 64.6001h-4.3V116.3h4.3V64.6001z"/>
    <path id="Line_11" data-name="Line 11" d="M94.8 56h-4.3v60.3h4.3V56z"/>
    <path id="Line_12" data-name="Line 12" d="M103.4 18.8999h-4.3V116.3h4.3V18.8999z"/>
    <path id="Line_13" data-name="Line 13" d="M112 56.1001h-4.3V116.3h4.3V56.1001z"/>
    <path id="Line_14" data-name="Line 14" d="M120.6 94.8h-4.3v21.5h4.3V94.8z"/>
    <path id="Line_15" data-name="Line 15" d="M129.2 80.8h-4.3v35.5h4.3V80.8z"/>
    <path id="Line_16" data-name="Line 16" d="M137.9 64.6001h-4.3V116.3h4.3V64.6001z"/>
    <path id="Line_17" data-name="Line 17" d="M146.5 56.1001h-4.3V116.3h4.3V56.1001z"/>
    <path id="Line_18" data-name="Line 18" d="M137.9 47.3999h-4.3v4.3h4.3v-4.3z"/>
    <path id="Line_19" data-name="Line 19" d="M129.2 34.5h-4.3v4.3h4.3v-4.3z"/>
    <path id="Line_20" data-name="Line 20" d="M120.6 86.2h-4.3v4.3h4.3v-4.3z"/>
    <path id="Line_21" data-name="Line 21" d="M120.6 68.8999h-4.3v4.3h4.3v-4.3z"/>
    <path id="Line_22" data-name="Line 22" d="M129.2 56h-4.3v8.6h4.3V56z"/>
    <path id="Line_23" data-name="Line 23" d="M77.5 56h-4.3v4.3h4.3V56z"/>
    <path id="Line_24" data-name="Line 24" d="M146.5 17.2h-4.3v4.3h4.3v-4.3z"/>
    <path id="Line_25" data-name="Line 25" d="M146.5 4.30005h-4.3v4.3h4.3v-4.3z"/>
    <path id="Line_26" data-name="Line 26" d="M112 38.8h-4.3v4.3h4.3v-4.3z"/>
    <path id="Line_27" data-name="Line 27" d="M94.8 43.1001h-4.3v4.3h4.3v-4.3z"/>
    <path id="Line_28" data-name="Line 28" d="M60.3 25.8H56v4.3h4.3v-4.3z"/>
    <path id="Line_29" data-name="Line 29" d="M68.9 12.8999h-4.3v4.3h4.3v-4.3z"/>
    <path id="Line_30" data-name="Line 30" d="M43.1 21.5h-4.3v4.3h4.3v-4.3z"/>
    <path id="Line_31" data-name="Line 31" d="M17.2 12.8999h-4.3v4.3h4.3v-4.3z"/>
    <path id="Line_32" data-name="Line 32" d="M8.60005 47.3999h-4.3v4.3h4.3v-4.3z"/>
    <path id="Line_33" data-name="Line 33" d="M34.5 47.3999h-4.3v8.6h4.3v-8.6z"/>
    <path id="Line_34" data-name="Line 34" d="M51.7 0h-4.3v4.3h4.3V0z"/>
    <path id="Line_35" data-name="Line 35" d="M68.9 43.1001h-4.3v8.6h4.3v-8.6z"/>
    <path id="Line_36" data-name="Line 36" d="M77.5 64.6001h-4.3v8.6h4.3v-8.6z"/>
    <path id="Line_37" data-name="Line 37" d="M86.2 51.7h-4.3v8.5999h4.3V51.7z"/>
    <path id="Line_38" data-name="Line 38" d="M112 25.8h-4.3v4.3h4.3v-4.3z"/>
    <path id="Line_39" data-name="Line 39" d="M155.1 55.8999h-4.3V116.1h4.3V55.8999z"/>
    <path id="Line_40" data-name="Line 40" d="M155.1 34.5h-4.3v4.3h4.3v-4.3z"/>
  </g>
</svg>
